<?xml version="1.0" encoding="UTF-8"?>
<svg width="3300px" height="2200px" viewBox="0 0 3300 2200" version="1.1" xmlns="http://www.w3.org/2000/svg" xmlns:xlink="http://www.w3.org/1999/xlink">
    <title>cyclometer.rider</title>
    <g id="cyclometer.rider" stroke="none" fill="none" fill-rule="evenodd" stroke-width="1">
        <g id="Group">
            <g id="Notes">
                <rect id="artboard" fill="#FFFFFF" x="0" y="0" width="3300" height="2200"></rect>
                <line x1="263" y1="292" x2="3036" y2="292" id="Path" stroke="#000000" stroke-width="0.5"></line>
                <text id="Weight/Scale-Variations" fill="#000000" fill-rule="nonzero" font-family="Helvetica" font-size="13" font-weight="normal">
                    <tspan x="263" y="322">Weight/Scale Variations</tspan>
                </text>
                <text id="Regular" fill="#000000" fill-rule="nonzero" font-family="Helvetica" font-size="13" font-weight="normal">
                    <tspan x="1426.84" y="322">Regular</tspan>
                </text>
                <line x1="263" y1="1903" x2="3036" y2="1903" id="Path" stroke="#000000" stroke-width="0.5"></line>
                <text id="Small" fill="#000000" fill-rule="nonzero" font-family="Helvetica" font-size="13" font-weight="normal">
                    <tspan x="263" y="726">Small</tspan>
                </text>
                <text id="Medium" fill="#000000" fill-rule="nonzero" font-family="Helvetica" font-size="13" font-weight="normal">
                    <tspan x="263" y="1156">Medium</tspan>
                </text>
                <text id="Large" fill="#000000" fill-rule="nonzero" font-family="Helvetica" font-size="13" font-weight="normal">
                    <tspan x="263" y="1586">Large</tspan>
                </text>
                <text id="template-version" fill="#000000" fill-rule="nonzero" font-family="Helvetica" font-size="13" font-weight="normal">
                    <tspan x="2952" y="1933">Template v.4.0</tspan>
                </text>
                <text id="Requires-Xcode-14-or-greater" fill="#000000" fill-rule="nonzero" font-family="Helvetica" font-size="13" font-weight="normal">
                    <tspan x="2865" y="1951">Requires Xcode 14 or greater</tspan>
                </text>
                <text id="descriptive-name" fill="#000000" fill-rule="nonzero" font-family="Helvetica" font-size="13" font-weight="normal">
                    <tspan x="2849" y="1969">Generated from cyclometer.rider</tspan>
                </text>
                <text id="Typeset-at-100-points" fill="#000000" fill-rule="nonzero" font-family="Helvetica" font-size="13" font-weight="normal">
                    <tspan x="2912" y="1987">Typeset at 100 points</tspan>
                </text>
            </g>
            <g id="Guides">
                <g id="H-reference" transform="translate(339, 696)" fill="#27AAE1" fill-rule="nonzero">
                    <path d="M0.993654,0 L3.63775,0 L29.3281,-67.1323 L30.0303,-67.1323 L30.0303,-70.459 L28.1226,-70.459 L0.993654,0 Z M11.6885,-24.4799 L46.9815,-24.4799 L46.2315,-26.7285 L12.4385,-26.7285 L11.6885,-24.4799 Z M55.1196,0 L57.7637,0 L30.6382,-70.459 L29.4326,-70.459 L29.4326,-67.1323 L55.1196,0 Z" id="Shape"></path>
                </g>
                <line x1="263" y1="696" x2="3036" y2="696" id="Baseline-S" stroke="#27AAE1" stroke-width="0.5"></line>
                <line x1="263" y1="625.541" x2="3036" y2="625.541" id="Capline-S" stroke="#27AAE1" stroke-width="0.5"></line>
                <g id="H-reference" transform="translate(339, 1126)" fill="#27AAE1" fill-rule="nonzero">
                    <path d="M0.993654,0 L3.63775,0 L29.3281,-67.1323 L30.0303,-67.1323 L30.0303,-70.459 L28.1226,-70.459 L0.993654,0 Z M11.6885,-24.4799 L46.9815,-24.4799 L46.2315,-26.7285 L12.4385,-26.7285 L11.6885,-24.4799 Z M55.1196,0 L57.7637,0 L30.6382,-70.459 L29.4326,-70.459 L29.4326,-67.1323 L55.1196,0 Z" id="Shape"></path>
                </g>
                <line x1="263" y1="1126" x2="3036" y2="1126" id="Baseline-M" stroke="#27AAE1" stroke-width="0.5"></line>
                <line x1="263" y1="1055.54" x2="3036" y2="1055.54" id="Capline-M" stroke="#27AAE1" stroke-width="0.5"></line>
                <g id="H-reference" transform="translate(339, 1556)" fill="#27AAE1" fill-rule="nonzero">
                    <path d="M0.993654,0 L3.63775,0 L29.3281,-67.1323 L30.0303,-67.1323 L30.0303,-70.459 L28.1226,-70.459 L0.993654,0 Z M11.6885,-24.4799 L46.9815,-24.4799 L46.2315,-26.7285 L12.4385,-26.7285 L11.6885,-24.4799 Z M55.1196,0 L57.7637,0 L30.6382,-70.459 L29.4326,-70.459 L29.4326,-67.1323 L55.1196,0 Z" id="Shape"></path>
                </g>
                <line x1="263" y1="1556" x2="3036" y2="1556" id="Baseline-L" stroke="#27AAE1" stroke-width="0.5"></line>
                <line x1="263" y1="1485.54" x2="3036" y2="1485.54" id="Capline-L" stroke="#27AAE1" stroke-width="0.5"></line>
                <line x1="1403.09" y1="600.785" x2="1403.09" y2="720.121" id="left-margin-Regular-S" stroke="#00AEEF" stroke-width="0.5"></line>
                <line x1="1496.59" y1="600.785" x2="1496.59" y2="720.121" id="right-margin-Regular-S" stroke="#00AEEF" stroke-width="0.5"></line>
                <line x1="1403.09" y1="1030.78" x2="1403.09" y2="1150.12" id="left-margin-Regular-M" stroke="#00AEEF" stroke-width="0.5"></line>
                <line x1="1496.59" y1="1030.78" x2="1496.59" y2="1150.12" id="right-margin-Regular-M" stroke="#00AEEF" stroke-width="0.5"></line>
                <line x1="1403.09" y1="1460.78" x2="1403.09" y2="1580.12" id="left-margin-Regular-L" stroke="#00AEEF" stroke-width="0.5"></line>
                <line x1="1496.59" y1="1460.78" x2="1496.59" y2="1580.12" id="right-margin-Regular-L" stroke="#00AEEF" stroke-width="0.5"></line>
            </g>
            <g id="Symbols" fill="#212121">
                <g id="Regular-S" transform="matrix(2.0, 0, 0, 2.0, 1370.33, 720.465)">
                    <path d="M12.7610573,-49.3328745 C12.8149417,-49.2404892 12.8653011,-49.1428487 12.9243222,-49.0565594 L13.0993712,-48.7926465 C13.2225501,-48.6266894 13.3464341,-48.4596811 13.4801884,-48.3093843 C13.6100148,-48.1517302 13.7501144,-48.0117334 13.8877968,-47.8687937 C14.0306158,-47.7354184 14.1695068,-47.5966828 14.3170596,-47.4754994 C14.8974005,-46.9721625 15.5130936,-46.5780274 16.1193191,-46.2405426 C16.7283647,-45.908418 17.3330795,-45.6407214 17.9138231,-45.4210567 C18.2044972,-45.312696 18.4886245,-45.2149504 18.7656007,-45.1275049 C19.0429799,-45.0445789 19.3140138,-44.9637549 19.5693355,-44.9004831 C19.8297939,-44.8356347 20.0776625,-44.7744649 20.3152578,-44.7260126 C20.5537596,-44.6779806 20.7791679,-44.6327865 20.9927921,-44.5978924 C21.4196377,-44.5276837 21.7938075,-44.4834356 22.1030138,-44.458316 C22.4119178,-44.4308841 22.6558583,-44.4234219 22.8218427,-44.4205841 C22.9883306,-44.4180616 23.0767616,-44.4205841 23.0767616,-44.4205841 C23.0767616,-44.4205841 22.9965896,-44.4591568 22.8459144,-44.5326237 C22.6967502,-44.6045139 22.4775863,-44.7083553 22.1990994,-44.8429919 C21.9225259,-44.9764723 21.5884422,-45.1382254 21.2095386,-45.3275154 C20.8315415,-45.517541 20.405401,-45.734368 19.9505556,-45.9749481 C19.4902714,-46.2167893 19.0067212,-46.480387 18.5043366,-46.7767766 C18.0011462,-47.067806 17.4880854,-47.3979336 16.9782477,-47.7522348 C16.4726401,-48.1106351 15.9706583,-48.4982539 15.5225611,-48.92928 C15.4072383,-49.0352236 15.3033974,-49.1476835 15.1944198,-49.2573056 C15.094809,-49.3727083 14.987443,-49.4831713 14.8961918,-49.6018323 C14.796984,-49.7163942 14.7152005,-49.8394695 14.625863,-49.9573947 L14.5071157,-50.1400632 C14.4653175,-50.1999718 14.4362098,-50.2652405 14.399246,-50.3259899 L14.3461674,-50.4183752 L14.3009446,-50.5120217 C14.2721391,-50.5751884 14.2355782,-50.637199 14.2143267,-50.7013117 L14.1383847,-50.8913374 L14.0786586,-51.0827294 C14.0085585,-51.3392851 13.9699832,-51.5979428 13.9617243,-51.8615405 C13.9614222,-52.1213544 13.997983,-52.4083898 14.0415941,-52.6288953 L14.0448171,-52.6509669 L14.053479,-52.6814466 L14.0711048,-52.7446134 L14.1069605,-52.8686346 L14.1423128,-52.9933915 L14.1513775,-53.0241866 L14.1537947,-53.0323846 C14.1600393,-53.0504623 14.1557084,-53.039006 14.1505717,-53.0250274 L14.1635645,-53.0607623 C14.1864276,-53.1227729 14.2045569,-53.1859396 14.2316502,-53.2446921 C14.256427,-53.3046006 14.2792902,-53.3666112 14.3096065,-53.4224207 C14.5306839,-53.8880257 14.8681921,-54.2916201 15.2707645,-54.6183845 C15.6716247,-54.9472508 16.1260672,-55.2039116 16.5706393,-55.403817 C16.7921196,-55.5076584 17.0135999,-55.5926866 17.2272241,-55.6706728 C17.3338852,-55.7117679 17.4401434,-55.7454008 17.5427757,-55.7798745 C17.6470194,-55.8123512 17.7485439,-55.843882 17.8465431,-55.8742566 C18.2422666,-55.9921819 18.5976021,-56.076264 18.8934127,-56.1423737 C19.1901298,-56.2056455 19.4265165,-56.2507346 19.5886735,-56.2812144 C19.7523413,-56.3115891 19.8392614,-56.3275647 19.8392614,-56.3275647 C19.8392614,-56.3275647 19.8180099,-56.3337657 19.7767153,-56.3452219 C19.7350177,-56.3566781 19.6735793,-56.376017 19.5934073,-56.3956712 C19.4308474,-56.4355051 19.1916406,-56.4905789 18.8828372,-56.5365089 C18.573631,-56.5849612 18.1943245,-56.6227982 17.7532777,-56.6280533 C17.3122307,-56.6321523 16.8094432,-56.6038796 16.2586129,-56.4975157 C15.709797,-56.3904161 15.1090104,-56.2064863 14.5059071,-55.8681607 C14.2037511,-55.6997862 13.9071347,-55.4854818 13.6246189,-55.2293465 C13.3417003,-54.9726856 13.0816448,-54.6627378 12.8632867,-54.3125356 C12.80628,-54.2263514 12.7578343,-54.1339661 12.7078779,-54.0424216 C12.6560077,-53.9520333 12.6139074,-53.855549 12.5701954,-53.7599055 L12.5375627,-53.6872795 L12.5293037,-53.6696223 L12.5103686,-53.6179118 L12.4989874,-53.5882728 L12.4529589,-53.4676149 L12.4065276,-53.346957 L12.3836645,-53.2869434 L12.3718804,-53.2553075 L12.3600963,-53.2143174 C12.2212054,-52.7643726 12.1472779,-52.3513191 12.1233068,-51.9005335 C12.1099113,-51.4525859 12.1563426,-50.9955993 12.2672338,-50.558372 C12.3751034,-50.1178866 12.5548862,-49.7101932 12.7610573,-49.3328745" id="Path"></path>
                    <path d="M71.6400689,-29.1027054 C73.6706575,-26.3207419 79.8285955,-18.1888404 80.1166508,-17.9396419 C80.2810236,-17.7979635 80.469166,-18.0542038 80.3251384,-18.2237345 C79.869185,-18.755344 72.8595564,-31.8744949 71.6483279,-33.9891405 C69.4043163,-37.6068198 65.8008048,-41.248164 65.053271,-41.6341012 L64.8067845,-41.8693855 C64.422663,-41.3206405 61.3222538,-37.7263608 61.1027558,-37.4794255 C61.1099068,-37.4760622 66.1494587,-35.2714103 71.6400689,-29.1027054 Z" id="Path"></path>
                    <path d="M51.4761752,-47.0152006 C46.0875078,-47.4657265 27.438764,-47.6240606 23.545384,-47.0152006 C20.5973492,-46.5541151 15.8039602,-36.43681 15.2493907,-35.0117358 C12.8943874,-28.8356905 10.6588364,-22.4244254 10.3137742,-19.5288459 C10.2757026,-19.2085979 10.7120158,-19.104336 10.8123316,-19.4093441 C11.573563,-21.7244414 15.1740134,-28.8306119 17.9635169,-34.1301005 C19.2495824,-36.43681 22.6864554,-41.9168785 24.2917092,-42.0240833 C26.6794461,-42.1849955 34.2944994,-42.1345462 36.1359196,-42.1345462 C39.6741754,-42.1345462 43.8525848,-42.5230838 45.0992594,-42.5230838 C48.2777636,-44.7702227 50.7626385,-46.0080946 51.4761752,-47.0152006 Z" id="Path"></path>
                    <g id="Group" transform="translate(17.327, -64.6592)">
                        <path d="M0.31099307,15.5471478 L0.0895126734,15.5648051 C-0.0112059594,15.5722674 -0.0343712296,15.717204 0.0584913503,15.7573533 C0.0595992664,15.7573533 0.0608079322,15.7581941 0.0620164882,15.7594553 C2.82744831,16.9586772 6.0870059,16.3071455 8.84417877,15.4084122 C10.1677224,14.9740227 11.5796971,14.3857629 13.0393117,13.660239 C14.4997321,12.9365017 16.0077924,12.0776024 17.549694,11.1411372 C18.3082062,10.6767935 19.0856535,10.2004681 19.8792157,9.71478845 C20.6664325,9.2344691 21.4666422,8.75204773 22.2826647,8.28318452 C23.9129974,7.34587857 25.6055741,6.44714532 27.3665389,5.73770211 C29.1255901,5.02415976 30.8708427,4.55456091 32.5642252,4.39564557 C32.6909294,4.37998526 32.8168276,4.37798838 32.9427259,4.36611178 C33.0064809,4.36117187 33.0697322,4.35665252 33.1330842,4.35171271 C33.2589825,4.34845449 33.3848808,4.34435547 33.5100741,4.33983601 L33.6669937,4.3348962 L33.8232084,4.3357371 C34.2421979,4.33153295 34.6419502,4.3525535 35.0417025,4.38944453 C35.4406491,4.42602025 35.8293223,4.48918706 36.2082259,4.56801406 C36.3993899,4.60585101 36.5839064,4.65630032 36.7692287,4.70275576 C36.950623,4.75730397 37.1335281,4.80659719 37.307872,4.87060478 C37.4872519,4.92725513 37.6564592,4.99872488 37.8275802,5.06525495 C37.9939675,5.13998293 38.1619661,5.21019156 38.321303,5.29437881 L38.4420646,5.35428739 C38.4814456,5.37394157 38.519618,5.39737946 38.5588982,5.41829498 C38.635243,5.46222784 38.7151129,5.50458426 38.7906519,5.54967331 C38.9386076,5.64331983 39.0908941,5.73360309 39.2297852,5.83670876 C40.2054467,6.47552301 40.9459302,7.43626686 41.3888908,8.53774327 C42.2662508,10.7165223 42.2340209,13.1601603 41.7851179,15.4408891 C41.621853,16.2709902 41.4022863,17.0908965 41.1292381,17.889782 C41.0336561,18.1681991 40.9026212,18.6444196 41.1422308,18.3135562 C41.2610789,18.1464429 41.3971497,17.9329792 41.5643427,17.6816787 C41.6458241,17.5556605 41.7284134,17.4156637 41.8193623,17.2666281 C41.8645849,17.1919001 41.9118219,17.11507 41.9589583,17.0355072 C42.003476,16.953317 42.0506123,16.870391 42.0982521,16.7842067 C42.4810837,16.0936819 42.9157854,15.2158641 43.2797826,14.1143878 C43.4618819,13.5637547 43.6168879,12.9553151 43.7330165,12.291066 C43.8455192,11.6255556 43.9119935,10.9038154 43.8950727,10.1323616 C43.8950727,9.93981341 43.8777492,9.74516314 43.8667709,9.54693943 C43.8517638,9.34903103 43.8273899,9.14828486 43.8034188,8.94543666 C43.7699803,8.74469048 43.7448006,8.5390045 43.6987722,8.33373886 C43.6775205,8.23063319 43.6574775,8.12679165 43.6342116,8.02368598 C43.6078232,7.91984444 43.5819385,7.81684379 43.5555503,7.71247677 C43.4437526,7.29658535 43.3076816,6.87501848 43.1333376,6.45986271 C42.9603031,6.04481218 42.7607794,5.62850031 42.5219755,5.22490594 C42.2843802,4.8214167 42.0156629,4.42602025 41.7135069,4.04670466 C41.6367593,3.95305814 41.5612203,3.85741463 41.4817534,3.76502935 C41.400272,3.67348486 41.3184884,3.58236081 41.2358991,3.48955519 C41.0615552,3.31298266 40.8896284,3.12705589 40.6991695,2.96109872 C40.514653,2.78662821 40.3175465,2.62897421 40.1189294,2.46932322 C40.0182107,2.39049611 39.914672,2.31776512 39.8120397,2.24230138 C39.7604717,2.20404397 39.7089038,2.16547126 39.655825,2.12973633 L39.4956825,2.02463366 C39.2832668,1.88053783 39.0624915,1.75325841 38.8390975,1.6239821 C38.6132863,1.50321912 38.384655,1.37804183 38.150182,1.27420029 C37.9172198,1.16047914 37.6776101,1.06599184 37.4368926,0.967090208 C37.1941606,0.878803942 36.9494143,0.787679896 36.70074,0.712951911 C36.2042979,0.557294795 35.6943593,0.42927961 35.1765648,0.337630086 C34.6600796,0.244088709 34.1292923,0.177979094 33.6044474,0.145081941 L33.4069382,0.130788012 L33.2086232,0.123325628 C33.0756746,0.118806274 32.9427259,0.114707259 32.8096766,0.110608244 C32.6767281,0.108611251 32.5429737,0.110608244 32.410025,0.111449031 C32.2762706,0.112710266 32.1413077,0.111449031 32.0082584,0.12006751 C29.8597283,0.195636391 27.6911551,0.723146825 25.6536169,1.55167144 C23.6085249,2.37651749 21.7720211,3.43290484 20.0908255,4.52702401 C19.249724,5.07471421 18.447903,5.63596259 17.6763982,6.19510905 C17.2903435,6.47468223 16.9134544,6.7542554 16.5425076,7.03057046 C16.1757911,7.30814675 15.8131032,7.58109844 15.4550484,7.85131749 C14.0367285,8.92651813 12.6986813,9.92909291 11.4203602,10.8130066 C10.1433486,11.6981817 8.92606294,12.4635395 7.77837408,13.0907925 C6.63078586,13.7153128 5.55349922,14.2025689 4.57783763,14.5589722 C3.60167263,14.9145346 2.7306577,15.1497545 2.00598714,15.2959523 C1.28040994,15.4428859 0.704097855,15.5040558 0.31099307,15.5471478" id="Path"></path>
                        <path d="M47.4249483,22.8721277 C52.8541202,15.1161678 43.7581974,6.18510247 43.7569897,6.18510247 C44.9282469,6.99639034 45.2328201,9.74503627 45.2607192,10.9922901 C45.3748333,15.9764707 42.2635337,20.4433356 39.1782195,23.9327455 C35.9675106,27.564044 30.4441001,30.7118701 29.5525386,35.9711044 C28.9884135,39.3019143 31.009031,42.1026913 33.4093577,44.0294341 C34.6844557,45.0521885 36.0953225,45.8930102 37.5557429,46.5909972 C37.6576701,46.6390292 37.7481154,46.504708 37.669857,46.4213615 C36.1799261,44.8260074 31.7332988,38.7312066 40.8251708,30.1168837 C41.8445442,29.1513052 42.820797,28.2125315 43.7209195,27.2620877 C43.7209195,27.2620877 47.2328875,23.1465002 47.4249483,22.8721277 Z" id="Path"></path>
                        <path d="M39.9697628,9.27073709 C39.9697628,9.27073709 40.5738877,12.0717229 33.3105482,18.4262077 C32.6266791,19.0245048 28.368775,21.4068899 25.8328939,23.7318943 C16.8178528,31.9972697 25.4815872,37.3230405 25.4819901,37.3238813 C25.088986,37.0893972 25.0475906,35.5769693 25.03349,35.208269 C24.9555337,33.2363321 25.6755713,31.3248291 26.7008871,29.7005719 C28.3382702,27.1059013 30.8578478,25.2719642 33.3105482,23.3956706 C36.3690713,21.0558742 39.322142,18.6524906 40.3266089,14.6277927 C40.7424762,12.9588668 40.7896126,10.8391554 39.9697628,9.27073709 Z" id="Path"></path>
                        <path d="M7.95704896,4.96451429 C7.96883304,5.03188514 8.10570969,5.82667182 8.10570969,5.82667182 C8.11084627,5.82467482 21.0893502,-1.22908305 21.0893502,-1.22908305 L11.4581298,0.526447351 C16.3052146,-5.15855798 22.3392685,-2.16765025 22.3392685,-2.16765025 C21.3144563,-3.17968419 20.0873003,-3.95849525 18.7331381,-4.38100815 C14.9289949,-5.56751261 9.71015765,-4.06233679 8.22727701,0.108874356 C7.83820089,1.20425476 7.68118058,2.39485823 7.75591384,3.56044726 C7.78663302,4.03540637 7.87355313,4.49817356 7.95704896,4.96451429" id="Path"></path>
                    </g>
                    <g id="Group" transform="translate(0.0996, -36.1484)">
                        <path d="M67.2095514,18.0868312 C67.2095514,13.7858183 68.8624451,9.8875589 71.5404532,7.04568681 C72.3094389,6.20521226 73.4332586,5.34113112 73.530855,5.26840005 C73.6839474,5.16455858 73.8381476,5.05409563 73.9931536,4.9362755 C76.3773653,3.29236406 79.2336454,2.33498351 82.3044561,2.33498351 C86.6907531,2.33498351 90.638924,4.28758159 93.396399,7.40408704 C90.2580061,2.979158 85.2212681,0.109749 79.5405351,0.109749 C76.6562553,0.109749 71.9925024,1.46958302 69.129551,3.76459052 C64.9891082,7.04778887 62.3137189,12.2409137 62.3137189,18.0868312 C62.3137189,28.0157788 70.0269541,36.0647543 79.5405351,36.0647543 C85.2212681,36.0647543 90.2580061,33.1953453 93.396399,28.7704163 C90.638924,31.8869217 86.6907531,33.8395198 82.3044561,33.8395198 C73.967974,33.8395198 67.2095514,26.786918 67.2095514,18.0868312 Z" id="Path"></path>
                        <path d="M22.4248048,0.944474696 C20.7846017,0.40330086 19.038946,0.109749 17.227622,0.109749 C7.71323523,0.109749 0,8.15872448 0,18.0868312 C0,28.0157788 7.71323523,36.0647543 17.227622,36.0647543 C22.9075492,36.0647543 27.945093,33.1953453 31.083083,28.7704163 C28.3251044,31.8869217 24.3766313,33.8395198 19.9910395,33.8395198 C11.6542551,33.8395198 4.89583258,26.786918 4.89583258,18.0868312 C4.89583258,9.38758532 11.6542551,2.33498351 19.9910395,2.33498351 C20.6185165,2.33498351 21.8860896,2.46783372 23.5387075,2.91820128 C24.1190484,3.02427093 29.3582762,5.45558797 31.083083,7.40408704 C29.5349367,5.22120894 27.524089,3.4184873 25.2024235,2.14979254 C24.58948,1.82012495 23.6636071,1.41835233 22.4248048,0.944474696 Z" id="Path"></path>
                    </g>
                </g>
                <g id="Regular-M" transform="matrix(2.0, 0, 0, 2.0, 1370.33, 1150.465)">
                    <path d="M12.7610573,-49.3328745 C12.8149417,-49.2404892 12.8653011,-49.1428487 12.9243222,-49.0565594 L13.0993712,-48.7926465 C13.2225501,-48.6266894 13.3464341,-48.4596811 13.4801884,-48.3093843 C13.6100148,-48.1517302 13.7501144,-48.0117334 13.8877968,-47.8687937 C14.0306158,-47.7354184 14.1695068,-47.5966828 14.3170596,-47.4754994 C14.8974005,-46.9721625 15.5130936,-46.5780274 16.1193191,-46.2405426 C16.7283647,-45.908418 17.3330795,-45.6407214 17.9138231,-45.4210567 C18.2044972,-45.312696 18.4886245,-45.2149504 18.7656007,-45.1275049 C19.0429799,-45.0445789 19.3140138,-44.9637549 19.5693355,-44.9004831 C19.8297939,-44.8356347 20.0776625,-44.7744649 20.3152578,-44.7260126 C20.5537596,-44.6779806 20.7791679,-44.6327865 20.9927921,-44.5978924 C21.4196377,-44.5276837 21.7938075,-44.4834356 22.1030138,-44.458316 C22.4119178,-44.4308841 22.6558583,-44.4234219 22.8218427,-44.4205841 C22.9883306,-44.4180616 23.0767616,-44.4205841 23.0767616,-44.4205841 C23.0767616,-44.4205841 22.9965896,-44.4591568 22.8459144,-44.5326237 C22.6967502,-44.6045139 22.4775863,-44.7083553 22.1990994,-44.8429919 C21.9225259,-44.9764723 21.5884422,-45.1382254 21.2095386,-45.3275154 C20.8315415,-45.517541 20.405401,-45.734368 19.9505556,-45.9749481 C19.4902714,-46.2167893 19.0067212,-46.480387 18.5043366,-46.7767766 C18.0011462,-47.067806 17.4880854,-47.3979336 16.9782477,-47.7522348 C16.4726401,-48.1106351 15.9706583,-48.4982539 15.5225611,-48.92928 C15.4072383,-49.0352236 15.3033974,-49.1476835 15.1944198,-49.2573056 C15.094809,-49.3727083 14.987443,-49.4831713 14.8961918,-49.6018323 C14.796984,-49.7163942 14.7152005,-49.8394695 14.625863,-49.9573947 L14.5071157,-50.1400632 C14.4653175,-50.1999718 14.4362098,-50.2652405 14.399246,-50.3259899 L14.3461674,-50.4183752 L14.3009446,-50.5120217 C14.2721391,-50.5751884 14.2355782,-50.637199 14.2143267,-50.7013117 L14.1383847,-50.8913374 L14.0786586,-51.0827294 C14.0085585,-51.3392851 13.9699832,-51.5979428 13.9617243,-51.8615405 C13.9614222,-52.1213544 13.997983,-52.4083898 14.0415941,-52.6288953 L14.0448171,-52.6509669 L14.053479,-52.6814466 L14.0711048,-52.7446134 L14.1069605,-52.8686346 L14.1423128,-52.9933915 L14.1513775,-53.0241866 L14.1537947,-53.0323846 C14.1600393,-53.0504623 14.1557084,-53.039006 14.1505717,-53.0250274 L14.1635645,-53.0607623 C14.1864276,-53.1227729 14.2045569,-53.1859396 14.2316502,-53.2446921 C14.256427,-53.3046006 14.2792902,-53.3666112 14.3096065,-53.4224207 C14.5306839,-53.8880257 14.8681921,-54.2916201 15.2707645,-54.6183845 C15.6716247,-54.9472508 16.1260672,-55.2039116 16.5706393,-55.403817 C16.7921196,-55.5076584 17.0135999,-55.5926866 17.2272241,-55.6706728 C17.3338852,-55.7117679 17.4401434,-55.7454008 17.5427757,-55.7798745 C17.6470194,-55.8123512 17.7485439,-55.843882 17.8465431,-55.8742566 C18.2422666,-55.9921819 18.5976021,-56.076264 18.8934127,-56.1423737 C19.1901298,-56.2056455 19.4265165,-56.2507346 19.5886735,-56.2812144 C19.7523413,-56.3115891 19.8392614,-56.3275647 19.8392614,-56.3275647 C19.8392614,-56.3275647 19.8180099,-56.3337657 19.7767153,-56.3452219 C19.7350177,-56.3566781 19.6735793,-56.376017 19.5934073,-56.3956712 C19.4308474,-56.4355051 19.1916406,-56.4905789 18.8828372,-56.5365089 C18.573631,-56.5849612 18.1943245,-56.6227982 17.7532777,-56.6280533 C17.3122307,-56.6321523 16.8094432,-56.6038796 16.2586129,-56.4975157 C15.709797,-56.3904161 15.1090104,-56.2064863 14.5059071,-55.8681607 C14.2037511,-55.6997862 13.9071347,-55.4854818 13.6246189,-55.2293465 C13.3417003,-54.9726856 13.0816448,-54.6627378 12.8632867,-54.3125356 C12.80628,-54.2263514 12.7578343,-54.1339661 12.7078779,-54.0424216 C12.6560077,-53.9520333 12.6139074,-53.855549 12.5701954,-53.7599055 L12.5375627,-53.6872795 L12.5293037,-53.6696223 L12.5103686,-53.6179118 L12.4989874,-53.5882728 L12.4529589,-53.4676149 L12.4065276,-53.346957 L12.3836645,-53.2869434 L12.3718804,-53.2553075 L12.3600963,-53.2143174 C12.2212054,-52.7643726 12.1472779,-52.3513191 12.1233068,-51.9005335 C12.1099113,-51.4525859 12.1563426,-50.9955993 12.2672338,-50.558372 C12.3751034,-50.1178866 12.5548862,-49.7101932 12.7610573,-49.3328745" id="Path"></path>
                    <path d="M71.6400689,-29.1027054 C73.6706575,-26.3207419 79.8285955,-18.1888404 80.1166508,-17.9396419 C80.2810236,-17.7979635 80.469166,-18.0542038 80.3251384,-18.2237345 C79.869185,-18.755344 72.8595564,-31.8744949 71.6483279,-33.9891405 C69.4043163,-37.6068198 65.8008048,-41.248164 65.053271,-41.6341012 L64.8067845,-41.8693855 C64.422663,-41.3206405 61.3222538,-37.7263608 61.1027558,-37.4794255 C61.1099068,-37.4760622 66.1494587,-35.2714103 71.6400689,-29.1027054 Z" id="Path"></path>
                    <path d="M51.4761752,-47.0152006 C46.0875078,-47.4657265 27.438764,-47.6240606 23.545384,-47.0152006 C20.5973492,-46.5541151 15.8039602,-36.43681 15.2493907,-35.0117358 C12.8943874,-28.8356905 10.6588364,-22.4244254 10.3137742,-19.5288459 C10.2757026,-19.2085979 10.7120158,-19.104336 10.8123316,-19.4093441 C11.573563,-21.7244414 15.1740134,-28.8306119 17.9635169,-34.1301005 C19.2495824,-36.43681 22.6864554,-41.9168785 24.2917092,-42.0240833 C26.6794461,-42.1849955 34.2944994,-42.1345462 36.1359196,-42.1345462 C39.6741754,-42.1345462 43.8525848,-42.5230838 45.0992594,-42.5230838 C48.2777636,-44.7702227 50.7626385,-46.0080946 51.4761752,-47.0152006 Z" id="Path"></path>
                    <g id="Group" transform="translate(17.327, -64.6592)">
                        <path d="M0.31099307,15.5471478 L0.0895126734,15.5648051 C-0.0112059594,15.5722674 -0.0343712296,15.717204 0.0584913503,15.7573533 C0.0595992664,15.7573533 0.0608079322,15.7581941 0.0620164882,15.7594553 C2.82744831,16.9586772 6.0870059,16.3071455 8.84417877,15.4084122 C10.1677224,14.9740227 11.5796971,14.3857629 13.0393117,13.660239 C14.4997321,12.9365017 16.0077924,12.0776024 17.549694,11.1411372 C18.3082062,10.6767935 19.0856535,10.2004681 19.8792157,9.71478845 C20.6664325,9.2344691 21.4666422,8.75204773 22.2826647,8.28318452 C23.9129974,7.34587857 25.6055741,6.44714532 27.3665389,5.73770211 C29.1255901,5.02415976 30.8708427,4.55456091 32.5642252,4.39564557 C32.6909294,4.37998526 32.8168276,4.37798838 32.9427259,4.36611178 C33.0064809,4.36117187 33.0697322,4.35665252 33.1330842,4.35171271 C33.2589825,4.34845449 33.3848808,4.34435547 33.5100741,4.33983601 L33.6669937,4.3348962 L33.8232084,4.3357371 C34.2421979,4.33153295 34.6419502,4.3525535 35.0417025,4.38944453 C35.4406491,4.42602025 35.8293223,4.48918706 36.2082259,4.56801406 C36.3993899,4.60585101 36.5839064,4.65630032 36.7692287,4.70275576 C36.950623,4.75730397 37.1335281,4.80659719 37.307872,4.87060478 C37.4872519,4.92725513 37.6564592,4.99872488 37.8275802,5.06525495 C37.9939675,5.13998293 38.1619661,5.21019156 38.321303,5.29437881 L38.4420646,5.35428739 C38.4814456,5.37394157 38.519618,5.39737946 38.5588982,5.41829498 C38.635243,5.46222784 38.7151129,5.50458426 38.7906519,5.54967331 C38.9386076,5.64331983 39.0908941,5.73360309 39.2297852,5.83670876 C40.2054467,6.47552301 40.9459302,7.43626686 41.3888908,8.53774327 C42.2662508,10.7165223 42.2340209,13.1601603 41.7851179,15.4408891 C41.621853,16.2709902 41.4022863,17.0908965 41.1292381,17.889782 C41.0336561,18.1681991 40.9026212,18.6444196 41.1422308,18.3135562 C41.2610789,18.1464429 41.3971497,17.9329792 41.5643427,17.6816787 C41.6458241,17.5556605 41.7284134,17.4156637 41.8193623,17.2666281 C41.8645849,17.1919001 41.9118219,17.11507 41.9589583,17.0355072 C42.003476,16.953317 42.0506123,16.870391 42.0982521,16.7842067 C42.4810837,16.0936819 42.9157854,15.2158641 43.2797826,14.1143878 C43.4618819,13.5637547 43.6168879,12.9553151 43.7330165,12.291066 C43.8455192,11.6255556 43.9119935,10.9038154 43.8950727,10.1323616 C43.8950727,9.93981341 43.8777492,9.74516314 43.8667709,9.54693943 C43.8517638,9.34903103 43.8273899,9.14828486 43.8034188,8.94543666 C43.7699803,8.74469048 43.7448006,8.5390045 43.6987722,8.33373886 C43.6775205,8.23063319 43.6574775,8.12679165 43.6342116,8.02368598 C43.6078232,7.91984444 43.5819385,7.81684379 43.5555503,7.71247677 C43.4437526,7.29658535 43.3076816,6.87501848 43.1333376,6.45986271 C42.9603031,6.04481218 42.7607794,5.62850031 42.5219755,5.22490594 C42.2843802,4.8214167 42.0156629,4.42602025 41.7135069,4.04670466 C41.6367593,3.95305814 41.5612203,3.85741463 41.4817534,3.76502935 C41.400272,3.67348486 41.3184884,3.58236081 41.2358991,3.48955519 C41.0615552,3.31298266 40.8896284,3.12705589 40.6991695,2.96109872 C40.514653,2.78662821 40.3175465,2.62897421 40.1189294,2.46932322 C40.0182107,2.39049611 39.914672,2.31776512 39.8120397,2.24230138 C39.7604717,2.20404397 39.7089038,2.16547126 39.655825,2.12973633 L39.4956825,2.02463366 C39.2832668,1.88053783 39.0624915,1.75325841 38.8390975,1.6239821 C38.6132863,1.50321912 38.384655,1.37804183 38.150182,1.27420029 C37.9172198,1.16047914 37.6776101,1.06599184 37.4368926,0.967090208 C37.1941606,0.878803942 36.9494143,0.787679896 36.70074,0.712951911 C36.2042979,0.557294795 35.6943593,0.42927961 35.1765648,0.337630086 C34.6600796,0.244088709 34.1292923,0.177979094 33.6044474,0.145081941 L33.4069382,0.130788012 L33.2086232,0.123325628 C33.0756746,0.118806274 32.9427259,0.114707259 32.8096766,0.110608244 C32.6767281,0.108611251 32.5429737,0.110608244 32.410025,0.111449031 C32.2762706,0.112710266 32.1413077,0.111449031 32.0082584,0.12006751 C29.8597283,0.195636391 27.6911551,0.723146825 25.6536169,1.55167144 C23.6085249,2.37651749 21.7720211,3.43290484 20.0908255,4.52702401 C19.249724,5.07471421 18.447903,5.63596259 17.6763982,6.19510905 C17.2903435,6.47468223 16.9134544,6.7542554 16.5425076,7.03057046 C16.1757911,7.30814675 15.8131032,7.58109844 15.4550484,7.85131749 C14.0367285,8.92651813 12.6986813,9.92909291 11.4203602,10.8130066 C10.1433486,11.6981817 8.92606294,12.4635395 7.77837408,13.0907925 C6.63078586,13.7153128 5.55349922,14.2025689 4.57783763,14.5589722 C3.60167263,14.9145346 2.7306577,15.1497545 2.00598714,15.2959523 C1.28040994,15.4428859 0.704097855,15.5040558 0.31099307,15.5471478" id="Path"></path>
                        <path d="M47.4249483,22.8721277 C52.8541202,15.1161678 43.7581974,6.18510247 43.7569897,6.18510247 C44.9282469,6.99639034 45.2328201,9.74503627 45.2607192,10.9922901 C45.3748333,15.9764707 42.2635337,20.4433356 39.1782195,23.9327455 C35.9675106,27.564044 30.4441001,30.7118701 29.5525386,35.9711044 C28.9884135,39.3019143 31.009031,42.1026913 33.4093577,44.0294341 C34.6844557,45.0521885 36.0953225,45.8930102 37.5557429,46.5909972 C37.6576701,46.6390292 37.7481154,46.504708 37.669857,46.4213615 C36.1799261,44.8260074 31.7332988,38.7312066 40.8251708,30.1168837 C41.8445442,29.1513052 42.820797,28.2125315 43.7209195,27.2620877 C43.7209195,27.2620877 47.2328875,23.1465002 47.4249483,22.8721277 Z" id="Path"></path>
                        <path d="M39.9697628,9.27073709 C39.9697628,9.27073709 40.5738877,12.0717229 33.3105482,18.4262077 C32.6266791,19.0245048 28.368775,21.4068899 25.8328939,23.7318943 C16.8178528,31.9972697 25.4815872,37.3230405 25.4819901,37.3238813 C25.088986,37.0893972 25.0475906,35.5769693 25.03349,35.208269 C24.9555337,33.2363321 25.6755713,31.3248291 26.7008871,29.7005719 C28.3382702,27.1059013 30.8578478,25.2719642 33.3105482,23.3956706 C36.3690713,21.0558742 39.322142,18.6524906 40.3266089,14.6277927 C40.7424762,12.9588668 40.7896126,10.8391554 39.9697628,9.27073709 Z" id="Path"></path>
                        <path d="M7.95704896,4.96451429 C7.96883304,5.03188514 8.10570969,5.82667182 8.10570969,5.82667182 C8.11084627,5.82467482 21.0893502,-1.22908305 21.0893502,-1.22908305 L11.4581298,0.526447351 C16.3052146,-5.15855798 22.3392685,-2.16765025 22.3392685,-2.16765025 C21.3144563,-3.17968419 20.0873003,-3.95849525 18.7331381,-4.38100815 C14.9289949,-5.56751261 9.71015765,-4.06233679 8.22727701,0.108874356 C7.83820089,1.20425476 7.68118058,2.39485823 7.75591384,3.56044726 C7.78663302,4.03540637 7.87355313,4.49817356 7.95704896,4.96451429" id="Path"></path>
                    </g>
                    <g id="Group" transform="translate(0.0996, -36.1484)">
                        <path d="M67.2095514,18.0868312 C67.2095514,13.7858183 68.8624451,9.8875589 71.5404532,7.04568681 C72.3094389,6.20521226 73.4332586,5.34113112 73.530855,5.26840005 C73.6839474,5.16455858 73.8381476,5.05409563 73.9931536,4.9362755 C76.3773653,3.29236406 79.2336454,2.33498351 82.3044561,2.33498351 C86.6907531,2.33498351 90.638924,4.28758159 93.396399,7.40408704 C90.2580061,2.979158 85.2212681,0.109749 79.5405351,0.109749 C76.6562553,0.109749 71.9925024,1.46958302 69.129551,3.76459052 C64.9891082,7.04778887 62.3137189,12.2409137 62.3137189,18.0868312 C62.3137189,28.0157788 70.0269541,36.0647543 79.5405351,36.0647543 C85.2212681,36.0647543 90.2580061,33.1953453 93.396399,28.7704163 C90.638924,31.8869217 86.6907531,33.8395198 82.3044561,33.8395198 C73.967974,33.8395198 67.2095514,26.786918 67.2095514,18.0868312 Z" id="Path"></path>
                        <path d="M22.4248048,0.944474696 C20.7846017,0.40330086 19.038946,0.109749 17.227622,0.109749 C7.71323523,0.109749 0,8.15872448 0,18.0868312 C0,28.0157788 7.71323523,36.0647543 17.227622,36.0647543 C22.9075492,36.0647543 27.945093,33.1953453 31.083083,28.7704163 C28.3251044,31.8869217 24.3766313,33.8395198 19.9910395,33.8395198 C11.6542551,33.8395198 4.89583258,26.786918 4.89583258,18.0868312 C4.89583258,9.38758532 11.6542551,2.33498351 19.9910395,2.33498351 C20.6185165,2.33498351 21.8860896,2.46783372 23.5387075,2.91820128 C24.1190484,3.02427093 29.3582762,5.45558797 31.083083,7.40408704 C29.5349367,5.22120894 27.524089,3.4184873 25.2024235,2.14979254 C24.58948,1.82012495 23.6636071,1.41835233 22.4248048,0.944474696 Z" id="Path"></path>
                    </g>
                </g>
                <g id="Regular-L" transform="matrix(2.0, 0, 0, 2.0, 1370.33, 1580.465)">
                    <path d="M12.7610573,-49.3328745 C12.8149417,-49.2404892 12.8653011,-49.1428487 12.9243222,-49.0565594 L13.0993712,-48.7926465 C13.2225501,-48.6266894 13.3464341,-48.4596811 13.4801884,-48.3093843 C13.6100148,-48.1517302 13.7501144,-48.0117334 13.8877968,-47.8687937 C14.0306158,-47.7354184 14.1695068,-47.5966828 14.3170596,-47.4754994 C14.8974005,-46.9721625 15.5130936,-46.5780274 16.1193191,-46.2405426 C16.7283647,-45.908418 17.3330795,-45.6407214 17.9138231,-45.4210567 C18.2044972,-45.312696 18.4886245,-45.2149504 18.7656007,-45.1275049 C19.0429799,-45.0445789 19.3140138,-44.9637549 19.5693355,-44.9004831 C19.8297939,-44.8356347 20.0776625,-44.7744649 20.3152578,-44.7260126 C20.5537596,-44.6779806 20.7791679,-44.6327865 20.9927921,-44.5978924 C21.4196377,-44.5276837 21.7938075,-44.4834356 22.1030138,-44.458316 C22.4119178,-44.4308841 22.6558583,-44.4234219 22.8218427,-44.4205841 C22.9883306,-44.4180616 23.0767616,-44.4205841 23.0767616,-44.4205841 C23.0767616,-44.4205841 22.9965896,-44.4591568 22.8459144,-44.5326237 C22.6967502,-44.6045139 22.4775863,-44.7083553 22.1990994,-44.8429919 C21.9225259,-44.9764723 21.5884422,-45.1382254 21.2095386,-45.3275154 C20.8315415,-45.517541 20.405401,-45.734368 19.9505556,-45.9749481 C19.4902714,-46.2167893 19.0067212,-46.480387 18.5043366,-46.7767766 C18.0011462,-47.067806 17.4880854,-47.3979336 16.9782477,-47.7522348 C16.4726401,-48.1106351 15.9706583,-48.4982539 15.5225611,-48.92928 C15.4072383,-49.0352236 15.3033974,-49.1476835 15.1944198,-49.2573056 C15.094809,-49.3727083 14.987443,-49.4831713 14.8961918,-49.6018323 C14.796984,-49.7163942 14.7152005,-49.8394695 14.625863,-49.9573947 L14.5071157,-50.1400632 C14.4653175,-50.1999718 14.4362098,-50.2652405 14.399246,-50.3259899 L14.3461674,-50.4183752 L14.3009446,-50.5120217 C14.2721391,-50.5751884 14.2355782,-50.637199 14.2143267,-50.7013117 L14.1383847,-50.8913374 L14.0786586,-51.0827294 C14.0085585,-51.3392851 13.9699832,-51.5979428 13.9617243,-51.8615405 C13.9614222,-52.1213544 13.997983,-52.4083898 14.0415941,-52.6288953 L14.0448171,-52.6509669 L14.053479,-52.6814466 L14.0711048,-52.7446134 L14.1069605,-52.8686346 L14.1423128,-52.9933915 L14.1513775,-53.0241866 L14.1537947,-53.0323846 C14.1600393,-53.0504623 14.1557084,-53.039006 14.1505717,-53.0250274 L14.1635645,-53.0607623 C14.1864276,-53.1227729 14.2045569,-53.1859396 14.2316502,-53.2446921 C14.256427,-53.3046006 14.2792902,-53.3666112 14.3096065,-53.4224207 C14.5306839,-53.8880257 14.8681921,-54.2916201 15.2707645,-54.6183845 C15.6716247,-54.9472508 16.1260672,-55.2039116 16.5706393,-55.403817 C16.7921196,-55.5076584 17.0135999,-55.5926866 17.2272241,-55.6706728 C17.3338852,-55.7117679 17.4401434,-55.7454008 17.5427757,-55.7798745 C17.6470194,-55.8123512 17.7485439,-55.843882 17.8465431,-55.8742566 C18.2422666,-55.9921819 18.5976021,-56.076264 18.8934127,-56.1423737 C19.1901298,-56.2056455 19.4265165,-56.2507346 19.5886735,-56.2812144 C19.7523413,-56.3115891 19.8392614,-56.3275647 19.8392614,-56.3275647 C19.8392614,-56.3275647 19.8180099,-56.3337657 19.7767153,-56.3452219 C19.7350177,-56.3566781 19.6735793,-56.376017 19.5934073,-56.3956712 C19.4308474,-56.4355051 19.1916406,-56.4905789 18.8828372,-56.5365089 C18.573631,-56.5849612 18.1943245,-56.6227982 17.7532777,-56.6280533 C17.3122307,-56.6321523 16.8094432,-56.6038796 16.2586129,-56.4975157 C15.709797,-56.3904161 15.1090104,-56.2064863 14.5059071,-55.8681607 C14.2037511,-55.6997862 13.9071347,-55.4854818 13.6246189,-55.2293465 C13.3417003,-54.9726856 13.0816448,-54.6627378 12.8632867,-54.3125356 C12.80628,-54.2263514 12.7578343,-54.1339661 12.7078779,-54.0424216 C12.6560077,-53.9520333 12.6139074,-53.855549 12.5701954,-53.7599055 L12.5375627,-53.6872795 L12.5293037,-53.6696223 L12.5103686,-53.6179118 L12.4989874,-53.5882728 L12.4529589,-53.4676149 L12.4065276,-53.346957 L12.3836645,-53.2869434 L12.3718804,-53.2553075 L12.3600963,-53.2143174 C12.2212054,-52.7643726 12.1472779,-52.3513191 12.1233068,-51.9005335 C12.1099113,-51.4525859 12.1563426,-50.9955993 12.2672338,-50.558372 C12.3751034,-50.1178866 12.5548862,-49.7101932 12.7610573,-49.3328745" id="Path"></path>
                    <path d="M71.6400689,-29.1027054 C73.6706575,-26.3207419 79.8285955,-18.1888404 80.1166508,-17.9396419 C80.2810236,-17.7979635 80.469166,-18.0542038 80.3251384,-18.2237345 C79.869185,-18.755344 72.8595564,-31.8744949 71.6483279,-33.9891405 C69.4043163,-37.6068198 65.8008048,-41.248164 65.053271,-41.6341012 L64.8067845,-41.8693855 C64.422663,-41.3206405 61.3222538,-37.7263608 61.1027558,-37.4794255 C61.1099068,-37.4760622 66.1494587,-35.2714103 71.6400689,-29.1027054 Z" id="Path"></path>
                    <path d="M51.4761752,-47.0152006 C46.0875078,-47.4657265 27.438764,-47.6240606 23.545384,-47.0152006 C20.5973492,-46.5541151 15.8039602,-36.43681 15.2493907,-35.0117358 C12.8943874,-28.8356905 10.6588364,-22.4244254 10.3137742,-19.5288459 C10.2757026,-19.2085979 10.7120158,-19.104336 10.8123316,-19.4093441 C11.573563,-21.7244414 15.1740134,-28.8306119 17.9635169,-34.1301005 C19.2495824,-36.43681 22.6864554,-41.9168785 24.2917092,-42.0240833 C26.6794461,-42.1849955 34.2944994,-42.1345462 36.1359196,-42.1345462 C39.6741754,-42.1345462 43.8525848,-42.5230838 45.0992594,-42.5230838 C48.2777636,-44.7702227 50.7626385,-46.0080946 51.4761752,-47.0152006 Z" id="Path"></path>
                    <g id="Group" transform="translate(17.327, -64.6592)">
                        <path d="M0.31099307,15.5471478 L0.0895126734,15.5648051 C-0.0112059594,15.5722674 -0.0343712296,15.717204 0.0584913503,15.7573533 C0.0595992664,15.7573533 0.0608079322,15.7581941 0.0620164882,15.7594553 C2.82744831,16.9586772 6.0870059,16.3071455 8.84417877,15.4084122 C10.1677224,14.9740227 11.5796971,14.3857629 13.0393117,13.660239 C14.4997321,12.9365017 16.0077924,12.0776024 17.549694,11.1411372 C18.3082062,10.6767935 19.0856535,10.2004681 19.8792157,9.71478845 C20.6664325,9.2344691 21.4666422,8.75204773 22.2826647,8.28318452 C23.9129974,7.34587857 25.6055741,6.44714532 27.3665389,5.73770211 C29.1255901,5.02415976 30.8708427,4.55456091 32.5642252,4.39564557 C32.6909294,4.37998526 32.8168276,4.37798838 32.9427259,4.36611178 C33.0064809,4.36117187 33.0697322,4.35665252 33.1330842,4.35171271 C33.2589825,4.34845449 33.3848808,4.34435547 33.5100741,4.33983601 L33.6669937,4.3348962 L33.8232084,4.3357371 C34.2421979,4.33153295 34.6419502,4.3525535 35.0417025,4.38944453 C35.4406491,4.42602025 35.8293223,4.48918706 36.2082259,4.56801406 C36.3993899,4.60585101 36.5839064,4.65630032 36.7692287,4.70275576 C36.950623,4.75730397 37.1335281,4.80659719 37.307872,4.87060478 C37.4872519,4.92725513 37.6564592,4.99872488 37.8275802,5.06525495 C37.9939675,5.13998293 38.1619661,5.21019156 38.321303,5.29437881 L38.4420646,5.35428739 C38.4814456,5.37394157 38.519618,5.39737946 38.5588982,5.41829498 C38.635243,5.46222784 38.7151129,5.50458426 38.7906519,5.54967331 C38.9386076,5.64331983 39.0908941,5.73360309 39.2297852,5.83670876 C40.2054467,6.47552301 40.9459302,7.43626686 41.3888908,8.53774327 C42.2662508,10.7165223 42.2340209,13.1601603 41.7851179,15.4408891 C41.621853,16.2709902 41.4022863,17.0908965 41.1292381,17.889782 C41.0336561,18.1681991 40.9026212,18.6444196 41.1422308,18.3135562 C41.2610789,18.1464429 41.3971497,17.9329792 41.5643427,17.6816787 C41.6458241,17.5556605 41.7284134,17.4156637 41.8193623,17.2666281 C41.8645849,17.1919001 41.9118219,17.11507 41.9589583,17.0355072 C42.003476,16.953317 42.0506123,16.870391 42.0982521,16.7842067 C42.4810837,16.0936819 42.9157854,15.2158641 43.2797826,14.1143878 C43.4618819,13.5637547 43.6168879,12.9553151 43.7330165,12.291066 C43.8455192,11.6255556 43.9119935,10.9038154 43.8950727,10.1323616 C43.8950727,9.93981341 43.8777492,9.74516314 43.8667709,9.54693943 C43.8517638,9.34903103 43.8273899,9.14828486 43.8034188,8.94543666 C43.7699803,8.74469048 43.7448006,8.5390045 43.6987722,8.33373886 C43.6775205,8.23063319 43.6574775,8.12679165 43.6342116,8.02368598 C43.6078232,7.91984444 43.5819385,7.81684379 43.5555503,7.71247677 C43.4437526,7.29658535 43.3076816,6.87501848 43.1333376,6.45986271 C42.9603031,6.04481218 42.7607794,5.62850031 42.5219755,5.22490594 C42.2843802,4.8214167 42.0156629,4.42602025 41.7135069,4.04670466 C41.6367593,3.95305814 41.5612203,3.85741463 41.4817534,3.76502935 C41.400272,3.67348486 41.3184884,3.58236081 41.2358991,3.48955519 C41.0615552,3.31298266 40.8896284,3.12705589 40.6991695,2.96109872 C40.514653,2.78662821 40.3175465,2.62897421 40.1189294,2.46932322 C40.0182107,2.39049611 39.914672,2.31776512 39.8120397,2.24230138 C39.7604717,2.20404397 39.7089038,2.16547126 39.655825,2.12973633 L39.4956825,2.02463366 C39.2832668,1.88053783 39.0624915,1.75325841 38.8390975,1.6239821 C38.6132863,1.50321912 38.384655,1.37804183 38.150182,1.27420029 C37.9172198,1.16047914 37.6776101,1.06599184 37.4368926,0.967090208 C37.1941606,0.878803942 36.9494143,0.787679896 36.70074,0.712951911 C36.2042979,0.557294795 35.6943593,0.42927961 35.1765648,0.337630086 C34.6600796,0.244088709 34.1292923,0.177979094 33.6044474,0.145081941 L33.4069382,0.130788012 L33.2086232,0.123325628 C33.0756746,0.118806274 32.9427259,0.114707259 32.8096766,0.110608244 C32.6767281,0.108611251 32.5429737,0.110608244 32.410025,0.111449031 C32.2762706,0.112710266 32.1413077,0.111449031 32.0082584,0.12006751 C29.8597283,0.195636391 27.6911551,0.723146825 25.6536169,1.55167144 C23.6085249,2.37651749 21.7720211,3.43290484 20.0908255,4.52702401 C19.249724,5.07471421 18.447903,5.63596259 17.6763982,6.19510905 C17.2903435,6.47468223 16.9134544,6.7542554 16.5425076,7.03057046 C16.1757911,7.30814675 15.8131032,7.58109844 15.4550484,7.85131749 C14.0367285,8.92651813 12.6986813,9.92909291 11.4203602,10.8130066 C10.1433486,11.6981817 8.92606294,12.4635395 7.77837408,13.0907925 C6.63078586,13.7153128 5.55349922,14.2025689 4.57783763,14.5589722 C3.60167263,14.9145346 2.7306577,15.1497545 2.00598714,15.2959523 C1.28040994,15.4428859 0.704097855,15.5040558 0.31099307,15.5471478" id="Path"></path>
                        <path d="M47.4249483,22.8721277 C52.8541202,15.1161678 43.7581974,6.18510247 43.7569897,6.18510247 C44.9282469,6.99639034 45.2328201,9.74503627 45.2607192,10.9922901 C45.3748333,15.9764707 42.2635337,20.4433356 39.1782195,23.9327455 C35.9675106,27.564044 30.4441001,30.7118701 29.5525386,35.9711044 C28.9884135,39.3019143 31.009031,42.1026913 33.4093577,44.0294341 C34.6844557,45.0521885 36.0953225,45.8930102 37.5557429,46.5909972 C37.6576701,46.6390292 37.7481154,46.504708 37.669857,46.4213615 C36.1799261,44.8260074 31.7332988,38.7312066 40.8251708,30.1168837 C41.8445442,29.1513052 42.820797,28.2125315 43.7209195,27.2620877 C43.7209195,27.2620877 47.2328875,23.1465002 47.4249483,22.8721277 Z" id="Path"></path>
                        <path d="M39.9697628,9.27073709 C39.9697628,9.27073709 40.5738877,12.0717229 33.3105482,18.4262077 C32.6266791,19.0245048 28.368775,21.4068899 25.8328939,23.7318943 C16.8178528,31.9972697 25.4815872,37.3230405 25.4819901,37.3238813 C25.088986,37.0893972 25.0475906,35.5769693 25.03349,35.208269 C24.9555337,33.2363321 25.6755713,31.3248291 26.7008871,29.7005719 C28.3382702,27.1059013 30.8578478,25.2719642 33.3105482,23.3956706 C36.3690713,21.0558742 39.322142,18.6524906 40.3266089,14.6277927 C40.7424762,12.9588668 40.7896126,10.8391554 39.9697628,9.27073709 Z" id="Path"></path>
                        <path d="M7.95704896,4.96451429 C7.96883304,5.03188514 8.10570969,5.82667182 8.10570969,5.82667182 C8.11084627,5.82467482 21.0893502,-1.22908305 21.0893502,-1.22908305 L11.4581298,0.526447351 C16.3052146,-5.15855798 22.3392685,-2.16765025 22.3392685,-2.16765025 C21.3144563,-3.17968419 20.0873003,-3.95849525 18.7331381,-4.38100815 C14.9289949,-5.56751261 9.71015765,-4.06233679 8.22727701,0.108874356 C7.83820089,1.20425476 7.68118058,2.39485823 7.75591384,3.56044726 C7.78663302,4.03540637 7.87355313,4.49817356 7.95704896,4.96451429" id="Path"></path>
                    </g>
                    <g id="Group" transform="translate(0.0996, -36.1484)">
                        <path d="M67.2095514,18.0868312 C67.2095514,13.7858183 68.8624451,9.8875589 71.5404532,7.04568681 C72.3094389,6.20521226 73.4332586,5.34113112 73.530855,5.26840005 C73.6839474,5.16455858 73.8381476,5.05409563 73.9931536,4.9362755 C76.3773653,3.29236406 79.2336454,2.33498351 82.3044561,2.33498351 C86.6907531,2.33498351 90.638924,4.28758159 93.396399,7.40408704 C90.2580061,2.979158 85.2212681,0.109749 79.5405351,0.109749 C76.6562553,0.109749 71.9925024,1.46958302 69.129551,3.76459052 C64.9891082,7.04778887 62.3137189,12.2409137 62.3137189,18.0868312 C62.3137189,28.0157788 70.0269541,36.0647543 79.5405351,36.0647543 C85.2212681,36.0647543 90.2580061,33.1953453 93.396399,28.7704163 C90.638924,31.8869217 86.6907531,33.8395198 82.3044561,33.8395198 C73.967974,33.8395198 67.2095514,26.786918 67.2095514,18.0868312 Z" id="Path"></path>
                        <path d="M22.4248048,0.944474696 C20.7846017,0.40330086 19.038946,0.109749 17.227622,0.109749 C7.71323523,0.109749 0,8.15872448 0,18.0868312 C0,28.0157788 7.71323523,36.0647543 17.227622,36.0647543 C22.9075492,36.0647543 27.945093,33.1953453 31.083083,28.7704163 C28.3251044,31.8869217 24.3766313,33.8395198 19.9910395,33.8395198 C11.6542551,33.8395198 4.89583258,26.786918 4.89583258,18.0868312 C4.89583258,9.38758532 11.6542551,2.33498351 19.9910395,2.33498351 C20.6185165,2.33498351 21.8860896,2.46783372 23.5387075,2.91820128 C24.1190484,3.02427093 29.3582762,5.45558797 31.083083,7.40408704 C29.5349367,5.22120894 27.524089,3.4184873 25.2024235,2.14979254 C24.58948,1.82012495 23.6636071,1.41835233 22.4248048,0.944474696 Z" id="Path"></path>
                    </g>
                </g>
            </g>
        </g>
    </g>
</svg>