<?xml version="1.0" encoding="UTF-8"?>
<svg width="1024px" height="1024px" viewBox="0 0 1024 1024" version="1.1" xmlns="http://www.w3.org/2000/svg" xmlns:xlink="http://www.w3.org/1999/xlink">
    <title>0</title>
    <g id="0" stroke="none" fill="none" fill-rule="evenodd" stroke-width="1">
        <g id="Wheels" transform="translate(86.9077, 503.628)" fill="#393536">
            <path d="M612.393292,164.801786 C612.393292,125.612245 627.453964,90.0924737 651.855171,64.1981869 C658.861939,56.5400346 669.101847,48.6667862 669.991116,48.0040825 C671.386048,47.0579101 672.791074,46.0514048 674.203442,44.9778631 C695.927665,29.9990347 721.953233,21.27567 749.93354,21.27567 C789.900164,21.27567 825.874714,39.0671586 851,67.4638224 C822.403904,27.1451949 776.510657,1 724.74952,1 C698.468827,1 655.974108,13.3904001 629.887753,34.3018207 C592.161279,64.2173402 567.783933,111.535537 567.783933,164.801786 C567.783933,255.271381 638.064621,328.611234 724.74952,328.611234 C776.510657,328.611234 822.403904,302.466039 851,262.147412 C825.874714,290.544075 789.900164,308.335564 749.93354,308.335564 C673.974013,308.335564 612.393292,244.07437 612.393292,164.801786 Z" id="Back-wheel"></path>
            <path d="M204.328101,8.6057704 C189.383062,3.67475658 173.477171,1 156.972929,1 C70.280688,1 0,74.3398526 0,164.801786 C0,255.271381 70.280688,328.611234 156.972929,328.611234 C208.726724,328.611234 254.627313,302.466039 283.219738,262.147412 C258.089863,290.544075 222.11256,308.335564 182.152361,308.335564 C106.19008,308.335564 44.6093594,244.07437 44.6093594,164.801786 C44.6093594,85.5368643 106.19008,21.27567 182.152361,21.27567 C187.869744,21.27567 199.41949,22.4861613 214.477649,26.5897756 C219.765541,27.5562504 267.503815,49.7096827 283.219738,67.4638224 C269.113493,47.5740912 250.791251,31.1482319 229.636931,19.5882654 C224.051973,16.5844331 215.615697,12.9236014 204.328101,8.6057704 Z" id="front-wheel"></path>
        </g>
    </g>
</svg>